<svg width="24.000000" height="24.000000" viewBox="0 0 24 24" fill="none" xmlns="http://www.w3.org/2000/svg" xmlns:xlink="http://www.w3.org/1999/xlink">
	<desc>
			Created with Pixso.
	</desc>
	<defs>
		<clipPath id="clip378_3562">
			<rect id="briefcase-2-fill" width="24.000000" height="24.000000" fill="$white" fill-opacity="0"/>
		</clipPath>
	</defs>
	<rect id="briefcase-2-fill" width="24.000000" height="24.000000" fill="#FFFFFF" fill-opacity="0"/>
	<g clip-path="url(#clip378_3562)">
		<path id="Vector" d="M7 4L7 1C7 0.44 7.44 0 8 0L16 0C16.55 0 17 0.44 17 1L17 4L21 4C21.55 4 22 4.44 22 5L22 19C22 19.55 21.55 20 21 20L3 20C2.44 20 2 19.55 2 19L2 5C2 4.44 2.44 4 3 4L7 4ZM17 12L17 9L15 9L15 12L9 12L9 9L7 9L7 12L4 12L4 18L20 18L20 12L17 12ZM9 2L9 4L15 4L15 2L9 2Z" fill="#2196F3" fill-opacity="1.000000" fill-rule="nonzero"/>
	</g>
</svg>
