<svg width="24.000000" height="24.000000" viewBox="0 0 24 24" fill="none" xmlns="http://www.w3.org/2000/svg" xmlns:xlink="http://www.w3.org/1999/xlink">
	<desc>
			Created with Pixso.
	</desc>
	<defs>
		<clipPath id="clip378_3566">
			<rect id="customer-service-2-fill" width="24.000000" height="24.000000" fill="white" fill-opacity="0"/>
		</clipPath>
	</defs>
	<rect id="customer-service-2-fill" width="24.000000" height="24.000000" fill="#FFFFFF" fill-opacity="0"/>
	<g clip-path="url(#clip378_3566)">
		<path id="Vector" d="M21 8C22.1 8 23 8.89 23 10L23 14C23 15.1 22.1 16 21 16L19.93 16C19.44 19.94 16.08 23 12 23L12 21C15.31 21 18 18.31 18 15L18 9C18 5.68 15.31 3 12 3C8.68 3 6 5.68 6 9L6 16L3 16C1.89 16 1 15.1 1 14L1 10C1 8.89 1.89 8 3 8L4.06 8C4.55 4.05 7.91 1 12 1C16.08 1 19.44 4.05 19.93 8L21 8ZM7.75 15.78L8.82 14.08C9.74 14.66 10.83 15 12 15C13.16 15 14.25 14.66 15.17 14.08L16.24 15.78C15.01 16.55 13.55 17 12 17C10.44 17 8.98 16.55 7.75 15.78Z" fill="#2196F3" fill-opacity="1.000000" fill-rule="nonzero"/>
	</g>
</svg>
