<svg width="121.726562" height="19.209961" viewBox="0 0 121.727 19.21" fill="none" xmlns="http://www.w3.org/2000/svg" xmlns:xlink="http://www.w3.org/1999/xlink">
	<desc>
			Created with Pixso.
	</desc>
	<defs/>
	<path id="Vector" d="M121.72 10.6L113.57 10.6C113.64 11.25 113.82 11.74 114.1 12.06C114.49 12.52 115 12.75 115.64 12.75C116.03 12.75 116.41 12.65 116.77 12.45C116.99 12.32 117.23 12.1 117.48 11.78L121.49 12.15C120.88 13.21 120.14 13.98 119.27 14.45C118.41 14.91 117.16 15.14 115.55 15.14C114.14 15.14 113.03 14.94 112.23 14.55C111.42 14.15 110.75 13.52 110.22 12.66C109.69 11.79 109.43 10.78 109.43 9.61C109.43 7.95 109.96 6.61 111.02 5.58C112.08 4.56 113.55 4.04 115.43 4.04C116.94 4.04 118.14 4.27 119.02 4.73C119.9 5.19 120.57 5.86 121.03 6.73C121.49 7.6 121.72 8.74 121.72 10.14L121.72 10.6ZM117.58 8.65C117.5 7.86 117.29 7.3 116.94 6.96C116.6 6.62 116.15 6.45 115.6 6.45C114.95 6.45 114.43 6.71 114.05 7.22C113.8 7.54 113.64 8.02 113.58 8.65L117.58 8.65Z" fill="#000000" fill-opacity="1.000000" fill-rule="nonzero"/>
	<path id="Vector" d="M103.67 4.28L107.48 4.28L107.48 14.31L107.49 14.78C107.49 15.44 107.35 16.08 107.06 16.68C106.78 17.28 106.4 17.77 105.93 18.15C105.46 18.52 104.87 18.79 104.14 18.95C103.42 19.12 102.6 19.2 101.66 19.2C99.53 19.2 98.06 18.89 97.26 18.25C96.47 17.61 96.08 16.75 96.08 15.68C96.08 15.54 96.08 15.36 96.09 15.14L100.04 15.59C100.14 15.95 100.3 16.21 100.5 16.35C100.8 16.55 101.18 16.66 101.63 16.66C102.22 16.66 102.66 16.5 102.94 16.19C103.23 15.87 103.38 15.33 103.38 14.55L103.38 12.94C102.98 13.41 102.58 13.75 102.18 13.97C101.56 14.3 100.88 14.47 100.15 14.47C98.73 14.47 97.59 13.85 96.71 12.61C96.09 11.73 95.79 10.57 95.79 9.12C95.79 7.47 96.18 6.21 96.98 5.34C97.78 4.48 98.83 4.04 100.12 4.04C100.95 4.04 101.63 4.18 102.16 4.46C102.7 4.74 103.21 5.21 103.67 5.85L103.67 4.28ZM99.84 9.43C99.84 10.2 100.01 10.77 100.33 11.14C100.66 11.51 101.09 11.69 101.62 11.69C102.13 11.69 102.55 11.5 102.89 11.12C103.24 10.73 103.41 10.15 103.41 9.38C103.41 8.61 103.23 8.02 102.87 7.61C102.51 7.2 102.07 6.99 101.55 6.99C101.03 6.99 100.62 7.18 100.3 7.56C100 7.93 99.84 8.56 99.84 9.43Z" fill="#000000" fill-opacity="1.000000" fill-rule="nonzero"/>
	<path id="Vector" d="M86.34 7.72L82.45 7.31C82.6 6.63 82.81 6.1 83.08 5.71C83.36 5.32 83.76 4.98 84.28 4.69C84.65 4.49 85.17 4.33 85.82 4.21C86.47 4.1 87.18 4.04 87.94 4.04C89.16 4.04 90.14 4.11 90.88 4.25C91.62 4.39 92.23 4.67 92.73 5.1C93.07 5.4 93.35 5.83 93.55 6.38C93.75 6.93 93.85 7.45 93.85 7.95L93.85 12.64C93.85 13.14 93.88 13.53 93.94 13.82C94 14.1 94.14 14.46 94.36 14.9L90.54 14.9C90.38 14.62 90.28 14.42 90.24 14.28C90.19 14.13 90.14 13.9 90.1 13.6C89.56 14.11 89.04 14.48 88.51 14.7C87.79 14.99 86.95 15.14 86 15.14C84.73 15.14 83.77 14.84 83.11 14.26C82.46 13.67 82.13 12.95 82.13 12.09C82.13 11.28 82.37 10.62 82.84 10.1C83.31 9.58 84.19 9.19 85.46 8.94C86.99 8.63 87.98 8.42 88.43 8.3C88.88 8.17 89.36 8.01 89.87 7.81C89.87 7.31 89.76 6.96 89.56 6.76C89.35 6.56 88.99 6.46 88.47 6.46C87.8 6.46 87.3 6.57 86.97 6.78C86.71 6.95 86.5 7.26 86.34 7.72ZM89.87 9.86C89.31 10.06 88.72 10.24 88.12 10.39C87.29 10.61 86.77 10.83 86.55 11.04C86.32 11.26 86.21 11.51 86.21 11.79C86.21 12.11 86.32 12.37 86.54 12.58C86.77 12.78 87.1 12.88 87.53 12.88C87.98 12.88 88.4 12.77 88.79 12.55C89.18 12.33 89.46 12.06 89.62 11.75C89.78 11.43 89.87 11.02 89.87 10.51L89.87 9.86Z" fill="#000000" fill-opacity="1.000000" fill-rule="nonzero"/>
	<path id="Vector" d="M68.94 4.28L73.24 4.28L75.43 11.35L77.46 4.28L81.46 4.28L77.25 15.63C76.78 16.92 76.29 17.79 75.79 18.25C75.08 18.89 74 19.2 72.56 19.2C71.97 19.2 71.07 19.12 69.84 18.96L69.52 16.13C70.11 16.31 70.76 16.41 71.48 16.41C71.96 16.41 72.34 16.3 72.64 16.08C72.94 15.86 73.19 15.46 73.4 14.9L68.94 4.28Z" fill="#000000" fill-opacity="1.000000" fill-rule="nonzero"/>
	<path id="Vector" d="M55.97 9.62C55.97 8 56.51 6.67 57.6 5.62C58.7 4.57 60.17 4.04 62.03 4.04C64.16 4.04 65.76 4.66 66.85 5.89C67.72 6.88 68.16 8.11 68.16 9.56C68.16 11.19 67.62 12.53 66.53 13.58C65.45 14.62 63.96 15.14 62.04 15.14C60.34 15.14 58.96 14.7 57.91 13.84C56.61 12.77 55.97 11.36 55.97 9.62ZM60.04 9.61C60.04 10.56 60.23 11.26 60.61 11.71C61 12.16 61.48 12.39 62.06 12.39C62.65 12.39 63.13 12.17 63.5 11.72C63.88 11.27 64.07 10.56 64.07 9.57C64.07 8.65 63.88 7.97 63.5 7.52C63.12 7.07 62.65 6.84 62.09 6.84C61.5 6.84 61.01 7.07 60.62 7.53C60.24 7.98 60.04 8.68 60.04 9.61Z" fill="#000000" fill-opacity="1.000000" fill-rule="nonzero"/>
	<path id="Vector" d="M42.74 4.28L46.98 4.28L49.04 11.01L51.17 4.28L55.28 4.28L50.77 14.9L47.16 14.9L42.74 4.28Z" fill="#000000" fill-opacity="1.000000" fill-rule="nonzero"/>
	<path id="Vector" d="M40.5 4.28L42.44 4.28L42.44 7.26L40.5 7.26L40.5 14.9L36.43 14.9L36.43 7.26L34.91 7.26L34.91 4.28L36.43 4.28L36.43 3.8C36.43 3.37 36.47 2.89 36.57 2.37C36.66 1.85 36.83 1.43 37.08 1.1C37.34 0.77 37.71 0.5 38.16 0.31C38.63 0.1 39.31 0 40.2 0C40.92 0 41.95 0.08 43.31 0.25L42.86 2.7C42.38 2.62 41.98 2.58 41.68 2.58C41.32 2.58 41.05 2.65 40.89 2.77C40.73 2.89 40.62 3.09 40.55 3.35C40.52 3.5 40.5 3.81 40.5 4.28Z" fill="#000000" fill-opacity="1.000000" fill-rule="nonzero"/>
	<path id="Vector" d="M26.92 4.28L30.73 4.28L30.73 6.02C31.1 5.27 31.47 4.75 31.86 4.47C32.25 4.19 32.73 4.04 33.31 4.04C33.91 4.04 34.56 4.23 35.28 4.6L34.02 7.5C33.54 7.3 33.16 7.2 32.88 7.2C32.34 7.2 31.93 7.42 31.64 7.86C31.22 8.48 31.01 9.64 31.01 11.34L31.01 14.9L26.92 14.9L26.92 4.28Z" fill="#000000" fill-opacity="1.000000" fill-rule="nonzero"/>
	<path id="Vector" d="M24.41 14.9L20.61 14.9L20.61 13.18C20.05 13.88 19.48 14.39 18.9 14.69C18.32 14.99 17.62 15.14 16.78 15.14C15.66 15.14 14.78 14.8 14.14 14.14C13.5 13.46 13.19 12.43 13.19 11.04L13.19 4.28L17.28 4.28L17.28 10.12C17.28 10.79 17.4 11.26 17.65 11.54C17.89 11.82 18.24 11.96 18.69 11.96C19.17 11.96 19.57 11.77 19.87 11.4C20.19 11.03 20.34 10.36 20.34 9.39L20.34 4.28L24.41 4.28L24.41 14.9Z" fill="#000000" fill-opacity="1.000000" fill-rule="nonzero"/>
	<path id="Vector" d="M0 11.96L4.03 11.58C4.2 12.06 4.43 12.4 4.73 12.61C5.03 12.81 5.43 12.92 5.93 12.92C6.48 12.92 6.9 12.8 7.2 12.57C7.43 12.4 7.55 12.18 7.55 11.92C7.55 11.63 7.4 11.4 7.09 11.24C6.87 11.13 6.29 10.99 5.34 10.82C3.93 10.57 2.95 10.35 2.39 10.14C1.85 9.93 1.38 9.57 1 9.07C0.63 8.57 0.45 8 0.45 7.36C0.45 6.66 0.65 6.06 1.05 5.55C1.46 5.05 2.02 4.67 2.73 4.42C3.45 4.17 4.4 4.04 5.6 4.04C6.87 4.04 7.8 4.14 8.4 4.33C9.01 4.53 9.51 4.83 9.91 5.23C10.32 5.64 10.65 6.19 10.92 6.88L7.06 7.26C6.96 6.92 6.79 6.67 6.56 6.51C6.24 6.3 5.86 6.19 5.4 6.19C4.94 6.19 4.61 6.27 4.39 6.44C4.19 6.6 4.08 6.8 4.08 7.03C4.08 7.29 4.22 7.49 4.48 7.62C4.75 7.75 5.33 7.87 6.22 7.98C7.57 8.13 8.58 8.35 9.24 8.62C9.9 8.89 10.4 9.28 10.75 9.79C11.1 10.3 11.28 10.85 11.28 11.46C11.28 12.07 11.09 12.67 10.72 13.25C10.35 13.83 9.77 14.29 8.97 14.64C8.18 14.98 7.09 15.15 5.72 15.15C3.78 15.15 2.4 14.87 1.57 14.32C0.75 13.76 0.23 12.98 0 11.96Z" fill="#000000" fill-opacity="1.000000" fill-rule="nonzero"/>
</svg>
