<svg width="20.000000" height="20.000000" viewBox="0 0 20 20" fill="none" xmlns="http://www.w3.org/2000/svg" xmlns:xlink="http://www.w3.org/1999/xlink">
	<desc>
			Created with Pixso.
	</desc>
	<defs>
		<clipPath id="clip378_3463">
			<rect id="map-pin-fill" width="20.000000" height="20.000000" fill="$white" fill-opacity="0"/>
		</clipPath>
	</defs>
	<rect id="map-pin-fill" width="20.000000" height="20.000000" fill="#FFFFFF" fill-opacity="0"/>
	<g clip-path="url(#clip378_3463)">
		<path id="Vector" d="M15.3 13.63L10 18.93L4.69 13.63C1.76 10.7 1.76 5.95 4.69 3.02C7.62 0.1 12.37 0.1 15.3 3.02C18.23 5.95 18.23 10.7 15.3 13.63ZM10 11.66C11.84 11.66 13.33 10.17 13.33 8.33C13.33 6.49 11.84 5 10 5C8.15 5 6.66 6.49 6.66 8.33C6.66 10.17 8.15 11.66 10 11.66ZM10 10C9.08 10 8.33 9.25 8.33 8.33C8.33 7.41 9.08 6.66 10 6.66C10.91 6.66 11.66 7.41 11.66 8.33C11.66 9.25 10.91 10 10 10Z" fill="#898A8D" fill-opacity="1.000000" fill-rule="nonzero"/>
	</g>
</svg>
