<svg width="24.000000" height="24.000000" viewBox="0 0 24 24" fill="none" xmlns="http://www.w3.org/2000/svg" xmlns:xlink="http://www.w3.org/1999/xlink">
	<desc>
			Created with Pixso.
	</desc>
	<defs>
		<clipPath id="clip378_3532">
			<rect id="account-circle-fill" rx="-0.500000" width="23.000000" height="23.000000" transform="translate(0.500000 0.500000)" fill="$white" fill-opacity="0"/>
		</clipPath>
	</defs>
	<rect id="account-circle-fill" rx="-0.500000" width="23.000000" height="23.000000" transform="translate(0.500000 0.500000)" fill="#FFFFFF" fill-opacity="0"/>
	<g clip-path="url(#clip378_3532)">
		<path id="Vector" d="M12 2C17.51 2 22 6.47 22 12C22 17.52 17.51 22 12 22C6.48 22 2 17.52 2 12C2 6.47 6.48 2 12 2ZM6.02 15.41C7.49 17.6 9.69 19 12.16 19C14.62 19 16.82 17.6 18.29 15.41C16.68 13.91 14.53 13 12.16 13C9.78 13 7.63 13.91 6.02 15.41ZM12 11C13.65 11 15 9.65 15 8C15 6.34 13.65 5 12 5C10.34 5 9 6.34 9 8C9 9.65 10.34 11 12 11Z" fill="#1995F5" fill-opacity="1.000000" fill-rule="nonzero"/>
	</g>
</svg>
