<svg width="24.000000" height="24.000000" viewBox="0 0 24 24" fill="none" xmlns="http://www.w3.org/2000/svg" xmlns:xlink="http://www.w3.org/1999/xlink">
	<desc>
			Created with Pixso.
	</desc>
	<defs>
		<clipPath id="clip378_3570">
			<rect id="logout-box-r-line" width="24.000000" height="24.000000" fill="white" fill-opacity="0"/>
		</clipPath>
	</defs>
	<rect id="logout-box-r-line" width="24.000000" height="24.000000" fill="#FFFFFF" fill-opacity="0"/>
	<g clip-path="url(#clip378_3570)">
		<path id="Vector" d="M5 22C4.44 22 4 21.55 4 21L4 3C4 2.44 4.44 2 5 2L19 2C19.55 2 20 2.44 20 3L20 6L18 6L18 4L6 4L6 20L18 20L18 18L20 18L20 21C20 21.55 19.55 22 19 22L5 22ZM18 16L18 13L11 13L11 11L18 11L18 8L23 12L18 16Z" fill="#2196F3" fill-opacity="1.000000" fill-rule="nonzero"/>
	</g>
</svg>
